<svg width="292px" height="200px" viewBox="0 0 1216 832" version="1.1" xmlns="http://www.w3.org/2000/svg">
<g id="#a5e9dcff">
<path fill="#a5e9dc" opacity="1.00" d=" M 217.48 0.00 L 994.65 0.00 C 1068.06 80.14 1142.36 159.47 1216.00 239.39 L 1216.00 240.62 C 1181.04 275.46 1145.19 309.39 1110.15 344.14 C 1094.75 358.07 1080.73 373.42 1065.36 387.37 C 1017.50 434.52 969.01 481.01 921.15 528.14 C 903.91 543.89 888.06 561.07 870.78 576.78 C 850.97 596.98 830.03 616.02 810.21 636.21 C 792.93 651.92 777.08 669.10 759.84 684.84 C 724.65 719.66 688.85 753.84 653.61 788.59 C 638.02 802.44 624.37 818.31 608.64 832.00 L 607.42 832.00 C 591.48 816.13 574.96 800.86 559.21 784.79 C 540.95 768.07 524.05 749.94 505.78 733.22 C 485.97 713.02 465.03 693.98 445.21 673.79 C 427.94 658.08 412.08 640.90 394.84 625.16 C 346.98 578.01 298.52 531.49 250.61 484.41 C 236.40 471.62 223.57 457.41 209.48 444.50 C 196.43 432.56 184.55 419.42 171.48 407.50 C 158.43 395.56 146.55 382.42 133.48 370.50 C 121.99 360.01 111.44 348.55 100.15 337.86 C 82.44 321.58 66.01 303.97 48.26 287.74 C 32.69 271.50 15.85 256.57 0.00 240.63 L 0.00 239.53 C 72.69 159.87 144.80 79.67 217.48 0.00 M 221.42 9.22 C 158.97 78.80 95.81 147.76 33.17 217.18 C 26.06 224.70 19.12 232.39 12.67 240.49 C 28.13 253.60 41.61 268.77 56.40 282.58 C 70.52 295.10 82.99 309.35 97.02 321.98 C 110.13 333.85 121.85 347.16 135.02 358.98 C 148.13 370.85 159.85 384.16 173.02 395.98 C 186.13 407.85 197.85 421.16 211.02 432.98 C 224.13 444.85 235.85 458.16 249.02 469.98 C 262.13 481.85 273.85 495.16 287.02 506.98 C 300.13 518.85 311.85 532.16 325.02 543.98 C 337.26 555.05 348.26 567.40 360.40 578.58 C 375.55 592.08 388.92 607.44 404.16 620.85 C 418.08 634.26 431.33 648.36 445.73 661.27 C 465.46 681.56 486.54 700.44 506.25 720.75 C 524.28 737.04 540.70 754.99 558.73 771.27 C 574.71 787.72 591.56 803.25 607.95 819.28 C 622.12 807.75 633.95 793.73 647.35 781.37 C 663.69 766.72 678.30 750.28 694.70 735.70 C 715.52 714.50 737.49 694.50 758.28 673.28 C 771.98 661.00 784.62 647.63 797.81 634.81 C 814.70 619.72 829.80 602.78 846.70 587.70 C 867.52 566.50 889.48 546.50 910.28 525.28 C 923.98 513.00 936.62 499.63 949.81 486.81 C 966.70 471.72 981.80 454.78 998.70 439.70 C 1019.52 418.50 1041.48 398.50 1062.28 377.28 C 1075.43 365.46 1087.68 352.69 1100.28 340.28 C 1118.83 323.52 1135.70 305.02 1154.25 288.25 C 1170.12 271.57 1187.58 256.53 1203.48 239.89 C 1198.92 234.36 1193.91 229.21 1189.05 223.96 C 1124.48 154.19 1059.83 84.50 995.29 14.70 C 992.61 12.34 990.04 8.72 986.07 8.96 C 731.19 9.20 476.30 8.68 221.42 9.22 Z" />
</g>
</svg>